<?xml version="1.0" encoding="utf-8"?>
<!-- Generator: $$$/GeneralStr/196=Adobe Illustrator 27.6.0, SVG Export Plug-In . SVG Version: 6.00 Build 0)  -->
<svg version="1.1" id="Calque_1" xmlns="http://www.w3.org/2000/svg" xmlns:xlink="http://www.w3.org/1999/xlink" x="0px" y="0px"
	 viewBox="0 0 141.73 141.73" style="enable-background:new 0 0 141.73 141.73;" xml:space="preserve">
<g>
	<g>
		<g>
			<path d="M87.69,62.3H54.04c-2.32,0-4.21-1.89-4.21-4.21c0-2.4,1.89-4.29,4.21-4.29h33.65c2.32,0,4.21,1.89,4.21,4.21
				C91.9,60.41,90.01,62.3,87.69,62.3z M54.04,56.5c-0.83,0-1.51,0.68-1.51,1.51c0,0.91,0.68,1.59,1.51,1.59h33.65
				c0.83,0,1.51-0.68,1.51-1.51c0-0.91-0.68-1.59-1.51-1.59H54.04z"/>
		</g>
	</g>
	<g>
		<g>
			<path d="M65.09,55.31h-2.7v-3.49c0-2.37,1.93-4.3,4.3-4.3h8.5c2.37,0,4.3,1.93,4.3,4.3v3.15h-2.7v-3.15c0-0.88-0.72-1.6-1.6-1.6
				h-8.5c-0.88,0-1.6,0.72-1.6,1.6C65.09,51.82,65.09,55.31,65.09,55.31z"/>
		</g>
	</g>
	<g>
		<g>
			<path d="M64.02,88.08c-0.72,0-1.31-0.56-1.35-1.29l-1.05-21.54c-0.04-0.75,0.54-1.38,1.29-1.41c0.66-0.07,1.38,0.54,1.41,1.29
				l1.05,21.54c0.04,0.75-0.54,1.38-1.29,1.41C64.06,88.08,64.04,88.08,64.02,88.08z"/>
		</g>
	</g>
	<g>
		<g>
			<path d="M70.88,88.08c-0.75,0-1.35-0.6-1.35-1.35V65.19c0-0.75,0.61-1.35,1.35-1.35s1.35,0.61,1.35,1.35v21.54
				C72.23,87.48,71.62,88.08,70.88,88.08z"/>
		</g>
	</g>
	<g>
		<g>
			<path d="M77.56,88.08c-0.03,0-0.05,0-0.08,0c-0.74-0.04-1.32-0.68-1.27-1.43l1.22-21.54c0.04-0.75,0.7-1.31,1.43-1.27
				c0.74,0.04,1.32,0.68,1.27,1.43l-1.22,21.54C78.87,87.53,78.28,88.08,77.56,88.08z"/>
		</g>
	</g>
	<g>
		<g>
			<path d="M81.54,94.22H60.22c-2.37,0-4.3-1.93-4.3-4.3L53.83,61.2l2.7-0.19l2.09,28.82c0,0.98,0.72,1.69,1.6,1.69h21.31
				c0.88,0,1.6-0.72,1.6-1.6L85.23,61l2.7,0.19l-2.09,28.82C85.84,92.29,83.91,94.22,81.54,94.22z"/>
		</g>
	</g>
</g>
</svg>
