<?xml version="1.0" encoding="utf-8"?>
<!-- Generator: $$$/GeneralStr/196=Adobe Illustrator 27.6.0, SVG Export Plug-In . SVG Version: 6.00 Build 0)  -->
<svg version="1.1" id="Calque_1" xmlns="http://www.w3.org/2000/svg" xmlns:xlink="http://www.w3.org/1999/xlink" x="0px" y="0px"
	 viewBox="0 0 141.73 141.73" style="enable-background:new 0 0 141.73 141.73;" xml:space="preserve">
<style type="text/css">
	.st0{fill-rule:evenodd;clip-rule:evenodd;}
</style>
<g>
	<g>
		<g>
			
				<rect x="85.86" y="52.99" transform="matrix(0.7071 -0.7071 0.7071 0.7071 -17.1034 79.695)" class="st0" width="3.57" height="15.01"/>
		</g>
		<g>
			<path class="st0" d="M95.77,62.99L85.15,52.38l1.65-1.65c1.34-1.34,3.51-1.34,4.85,0l5.76,5.76c1.34,1.34,1.34,3.51,0,4.85
				L95.77,62.99z"/>
		</g>
		<g>
			<path class="st0" d="M64.9,76.65L81.65,59.9l-2.01-2.01L62.26,75.27l-3.73,12.68c0,0-0.06,0.52,0.52,1.09
				c0.57,0.57,5.14-3.93,5.14-3.93l-1.29-1.29L64.9,76.65z"/>
		</g>
		<g>
			<path class="st0" d="M71.5,83.24l16.75-16.75l2.01,2.01L72.88,85.88L60.2,89.61c0,0-0.52,0.06-1.09-0.52
				c-0.57-0.57,3.93-5.14,3.93-5.14l1.29,1.29L71.5,83.24z"/>
		</g>
		<g>
			<polygon class="st0" points="69.26,81.35 69.04,79.01 66.45,78.54 83.37,61.62 86.19,64.43 			"/>
		</g>
	</g>
	<g>
		<g>
			<path d="M83.3,92H44.9c-0.87,0-1.58-0.71-1.58-1.58s0.71-1.58,1.58-1.58h38.4c0.87,0,1.58,0.71,1.58,1.58S84.17,92,83.3,92z"/>
		</g>
	</g>
</g>
</svg>
