<?xml version="1.0" encoding="utf-8"?>
<!-- Generator: $$$/GeneralStr/196=Adobe Illustrator 27.6.0, SVG Export Plug-In . SVG Version: 6.00 Build 0)  -->
<svg version="1.1" id="Calque_1" xmlns="http://www.w3.org/2000/svg" xmlns:xlink="http://www.w3.org/1999/xlink" x="0px" y="0px"
	 viewBox="0 0 141.73 141.73" style="enable-background:new 0 0 141.73 141.73;" xml:space="preserve">
<g>
	<g>
		<g>
			<path d="M70.87,85.43c-15.45,0-23.55-13.05-23.89-13.61L46.48,71l0.39-0.88c0.25-0.56,6.26-13.83,24-13.83s23.76,13.26,24,13.83
				L95.26,71l-0.5,0.82C94.42,72.38,86.31,85.43,70.87,85.43z M49.57,70.73c2.08,2.85,9.44,11.62,21.29,11.62
				c11.86,0,19.23-8.79,21.3-11.63c-1.64-2.87-7.63-11.34-21.3-11.34C57.3,59.38,51.22,67.88,49.57,70.73z"/>
		</g>
	</g>
	<g>
		<g>
			<path d="M70.87,77.92c3.9,0,7.06-3.16,7.06-7.06s-3.16-7.06-7.06-7.06c-0.84,0-1.64,0.15-2.39,0.42l2.47,6.17
				c0.14,0.34-0.19,0.69-0.54,0.57c-1.24-0.45-3.63-1.31-6.25-2.26c-0.22,0.68-0.34,1.4-0.34,2.15
				C63.81,74.76,66.97,77.92,70.87,77.92z"/>
		</g>
		<g>
			<path d="M70.87,59.25c-1.44,0-2.81-0.19-4.08,0.29l0.88,2.22c0.99-0.37,2.08-0.44,3.2-0.44c5.06,0,9.6,4.48,9.6,9.54
				s-4.55,9.64-9.6,9.64s-9.51-4.58-9.51-9.64c0-1,0.08-2.07,0.38-2.98c-0.77-0.28-1.12-0.45-1.87-0.72
				c-0.39,1.16-0.61,2.4-0.61,3.69c0,6.4,5.21,11.61,11.61,11.61s11.61-5.21,11.61-11.61C82.48,64.46,77.27,59.25,70.87,59.25z"/>
		</g>
	</g>
</g>
</svg>
